<?xml version="1.0" standalone="no"?>
<!DOCTYPE svg PUBLIC "-//W3C//DTD SVG 20010904//EN"
 "http://www.w3.org/TR/2001/REC-SVG-20010904/DTD/svg10.dtd">
<svg version="1.0" xmlns="http://www.w3.org/2000/svg"
 width="300.000000pt" height="300.000000pt" viewBox="0 0 300.000000 300.000000"
 preserveAspectRatio="xMidYMid meet">
<metadata>
Created by potrace 1.10, written by Peter Selinger 2001-2011
</metadata>
<g transform="translate(0.000000,300.000000) scale(0.100000,-0.100000)"
fill="#a698ec" stroke="none">
<path d="M1535 2005 c-16 -51 -16 -50 -26 -35 -7 11 -8 7 -3 -12 7 -31 -4 -58
-16 -38 -5 8 -9 7 -13 -5 -4 -9 -3 -13 3 -10 11 7 13 -15 4 -39 -8 -22 -25
-20 -18 2 5 14 4 14 -4 2 -7 -10 -8 -18 -1 -27 7 -8 6 -19 -2 -35 -7 -13 -12
-28 -11 -34 5 -25 -27 -21 -53 6 -16 16 -33 26 -39 23 -6 -3 -8 -3 -4 2 4 4 3
14 -2 21 -8 9 -1 18 27 35 21 13 40 27 41 31 2 4 9 8 16 8 17 0 17 36 0 50 -7
7 -21 10 -29 6 -8 -3 -15 -1 -15 4 0 6 5 10 12 10 6 0 9 3 6 6 -10 10 -48 -20
-43 -34 3 -7 0 -10 -5 -7 -5 3 -18 -2 -28 -12 -11 -10 -33 -31 -51 -46 -17
-16 -31 -38 -31 -49 0 -23 45 -88 61 -88 5 0 20 -9 32 -21 12 -11 32 -25 45
-30 12 -5 21 -12 20 -16 -2 -5 2 -9 7 -11 10 -2 135 308 135 335 0 7 7 13 16
13 11 0 14 -5 9 -17 -39 -96 -125 -331 -125 -340 0 -7 -10 -13 -22 -13 -23 0
-17 -12 7 -16 17 -3 47 35 39 48 -3 4 2 8 10 8 9 0 13 6 10 15 -3 8 2 35 12
61 15 39 19 44 26 28 6 -15 7 -13 4 6 -6 30 3 72 14 65 4 -3 7 3 6 13 -1 21
26 18 71 -10 28 -17 31 -22 20 -39 -6 -10 -18 -19 -25 -19 -7 0 -11 -4 -7 -9
3 -5 -4 -12 -15 -16 -11 -4 -18 -10 -15 -15 3 -5 -4 -11 -15 -15 -34 -11 -17
-55 22 -55 23 0 80 35 71 43 -3 4 1 7 11 7 23 0 88 70 81 88 -3 7 -5 18 -5 23
0 5 -7 9 -16 9 -8 0 -13 4 -10 9 3 4 -6 13 -19 19 -14 7 -25 16 -25 22 0 6 -4
8 -10 5 -5 -3 -10 1 -10 10 0 12 -5 15 -16 11 -12 -5 -15 -2 -10 10 5 13 2 15
-14 11 -11 -3 -17 -1 -14 4 3 6 0 16 -6 24 -6 8 -9 19 -5 25 4 6 -6 10 -25 10
-18 0 -32 -6 -35 -15z m-109 -67 c4 -7 2 -14 -6 -16 -8 -3 -24 -16 -37 -28
-13 -13 -26 -24 -30 -24 -3 0 -18 -11 -34 -24 l-28 -24 32 -25 c18 -13 49 -36
71 -50 31 -22 35 -28 21 -33 -9 -4 -20 -3 -24 2 -8 13 -109 91 -124 98 -8 3
-2 13 16 26 15 12 25 26 22 31 -4 5 2 6 11 2 12 -4 15 -3 10 5 -4 7 -2 12 6
12 7 0 27 13 43 29 34 33 41 36 51 19z m243 -48 c6 0 11 -5 11 -11 0 -5 5 -7
12 -3 7 4 8 3 4 -4 -4 -7 3 -17 18 -24 24 -10 37 -38 19 -38 -5 0 -39 -25 -77
-55 -63 -50 -86 -59 -86 -34 0 5 4 9 10 9 5 0 37 21 70 46 l59 47 -60 48 c-33
26 -65 49 -71 51 -6 2 -8 10 -4 16 5 9 18 4 46 -18 21 -16 43 -30 49 -30z"/>
<path d="M1506 1725 c-3 -8 -1 -15 4 -15 6 0 10 7 10 15 0 8 -2 15 -4 15 -2 0
-6 -7 -10 -15z"/>
<path d="M758 1559 c-39 -22 -14 -69 38 -69 l31 0 1 -106 c0 -124 15 -154 62
-124 11 7 15 29 17 77 0 37 2 87 2 111 1 35 4 42 22 42 31 0 59 19 59 40 0 11
-9 24 -19 30 -25 13 -191 13 -213 -1z m212 -29 c0 -5 -20 -10 -45 -10 l-45 0
0 -125 c0 -104 -2 -125 -15 -125 -13 0 -15 21 -15 125 l0 125 -45 0 c-25 0
-45 5 -45 10 0 6 42 10 105 10 63 0 105 -4 105 -10z"/>
<path d="M1327 1552 c-10 -10 -17 -29 -17 -43 0 -22 -5 -24 -44 -25 -28 -1
-56 -9 -75 -23 l-30 -22 -28 20 c-54 40 -114 31 -158 -21 -52 -62 -20 -164 60
-191 45 -15 75 -11 106 17 18 15 26 16 38 8 40 -29 82 -41 107 -32 14 6 38 10
53 10 41 0 51 17 51 90 0 63 1 67 23 65 20 -1 22 -8 25 -56 3 -68 19 -101 46
-97 12 2 25 12 30 24 9 21 10 21 58 -9 42 -26 54 -29 99 -24 29 4 61 13 73 21
18 12 26 11 59 -6 43 -21 104 -22 126 0 10 9 17 10 24 3 15 -15 42 -14 57 4 6
8 13 43 13 77 2 49 5 63 17 63 11 0 16 -15 18 -65 3 -68 13 -90 42 -90 28 0
41 24 41 83 2 103 36 105 40 2 3 -75 23 -103 57 -79 19 13 22 24 22 94 0 68
-3 83 -23 106 -18 21 -32 27 -58 26 -19 -1 -71 -2 -116 -2 -59 1 -89 -4 -107
-15 -15 -10 -26 -12 -30 -6 -4 6 -24 15 -46 21 -33 9 -43 7 -74 -11 -20 -11
-36 -25 -36 -29 0 -5 -26 -7 -57 -6 -43 2 -61 -2 -75 -16 -22 -22 -14 -46 21
-55 52 -12 50 -43 -3 -43 -53 0 -80 29 -80 83 0 63 23 87 83 87 25 0 53 -5 61
-10 10 -6 20 -4 32 7 24 22 23 33 -9 60 -20 18 -38 23 -83 23 -48 0 -64 -5
-99 -30 -23 -17 -46 -42 -51 -56 -9 -24 -11 -24 -40 -9 -16 8 -33 15 -37 14
-29 -5 -43 3 -43 24 -1 24 -22 57 -37 57 -5 0 -17 -8 -26 -18z m402 -24 c17
-6 21 -12 14 -19 -8 -8 -18 -7 -33 1 -30 16 -106 7 -130 -15 -31 -28 -45 -85
-31 -128 20 -59 94 -92 155 -68 15 6 19 17 19 47 0 38 -1 39 -36 39 -23 0 -37
5 -37 13 0 8 17 12 50 12 l50 0 0 -58 c0 -53 -2 -60 -25 -70 -39 -18 -106 -14
-142 8 -71 43 -85 153 -26 212 45 45 99 53 172 26z m-367 -31 l-4 -42 44 3
c69 6 86 -15 90 -110 3 -58 0 -78 -9 -78 -9 0 -13 20 -13 69 0 92 -20 113 -88
95 -22 -6 -23 -10 -20 -85 2 -58 0 -79 -9 -79 -10 0 -13 34 -13 135 0 102 3
135 13 135 8 0 11 -13 9 -43z m-253 -52 c30 -15 41 -33 41 -68 0 -21 -4 -22
-75 -19 -43 2 -75 0 -75 -6 0 -5 10 -22 21 -37 22 -27 55 -31 102 -10 12 5 17
3 17 -8 0 -8 -10 -17 -22 -21 -84 -22 -138 12 -138 89 0 78 61 116 129 80z
m195 9 c9 -3 16 -12 16 -19 0 -10 -6 -11 -29 -2 -78 29 -133 -72 -70 -129 14
-12 29 -15 59 -11 29 4 40 2 37 -6 -2 -7 -24 -13 -49 -15 -40 -3 -48 0 -72 28
-66 79 12 191 108 154z m610 -16 c15 -13 29 -37 32 -53 l6 -30 -76 3 c-71 4
-76 3 -76 -16 0 -40 66 -65 110 -42 12 6 21 7 25 1 8 -15 -29 -31 -70 -31 -27
0 -44 8 -67 30 -27 28 -30 36 -25 73 11 77 87 112 141 65z m173 7 c18 -13 22
-13 33 0 16 19 70 19 95 1 27 -20 37 -176 11 -176 -13 0 -16 13 -16 74 0 80
-11 100 -52 94 -33 -5 -49 -44 -45 -110 2 -43 0 -58 -10 -58 -9 0 -13 19 -13
69 0 74 -14 101 -50 101 -42 0 -45 -7 -42 -90 3 -68 1 -80 -12 -80 -13 0 -16
15 -16 89 0 62 4 91 13 94 26 11 83 6 104 -8z m-799 -41 c19 -6 23 -12 20 -43
-3 -33 -6 -36 -36 -39 -27 -3 -34 1 -42 23 -7 18 -7 33 0 46 11 20 21 22 58
13z m589 -80 c-3 -3 -12 -4 -19 -1 -8 3 -5 6 6 6 11 1 17 -2 13 -5z"/>
<path d="M1022 1413 l-27 -28 38 -3 c20 -2 52 -2 70 0 l32 3 -27 28 c-15 15
-34 27 -43 27 -9 0 -28 -12 -43 -27z"/>
<path d="M1822 1424 c-41 -29 -28 -44 38 -44 46 0 60 3 60 14 0 17 -38 46 -60
46 -9 0 -26 -7 -38 -16z"/>
</g>
</svg>
